<svg fill="#000000" xmlns="http://www.w3.org/2000/svg"  viewBox="0 0 48 48" width="24px" height="24px"><path d="M 13 8 C 6.9483321 8 2 12.948332 2 19 C 2 25.051668 6.9483321 30 13 30 L 17 30 A 2.0002 2.0002 0 1 0 17 26 L 13 26 C 9.1096679 26 6 22.890332 6 19 C 6 15.109668 9.1096679 12 13 12 L 17 12 A 2.0002 2.0002 0 1 0 17 8 L 13 8 z M 29 8 C 27.9 8 27 8.9 27 10 C 27 11.1 27.9 12 29 12 L 33 12 C 36.86 12 40 15.14 40 19 C 40 20.33 39.630469 21.570859 38.980469 22.630859 C 40.270469 23.040859 41.480547 23.649687 42.560547 24.429688 C 43.480547 22.829688 44 20.98 44 19 C 44 12.93 39.07 8 33 8 L 29 8 z M 12 17 A 2.0002 2.0002 0 1 0 12 21 L 34 21 A 2.0002 2.0002 0 1 0 34 17 L 12 17 z M 35 24 C 28.925 24 24 28.925 24 35 C 24 41.075 28.925 46 35 46 C 41.075 46 46 41.075 46 35 C 46 28.925 41.075 24 35 24 z M 35 27 C 35.552 27 36 27.448 36 28 L 36 34 L 42 34 C 42.552 34 43 34.448 43 35 C 43 35.552 42.552 36 42 36 L 36 36 L 36 42 C 36 42.552 35.552 43 35 43 C 34.448 43 34 42.552 34 42 L 34 36 L 28 36 C 27.448 36 27 35.552 27 35 C 27 34.448 27.448 34 28 34 L 34 34 L 34 28 C 34 27.448 34.448 27 35 27 z"/></svg>