<svg fill="#000000" xmlns="http://www.w3.org/2000/svg"  viewBox="0 0 48 48" width="24px" height="24px"><path d="M 14.5 4 C 12.585045 4 11 5.5850452 11 7.5 L 11 8.484375 L 6.1992188 11.339844 C 4.8392188 12.149844 4 13.630937 4 15.210938 L 4 30.5 C 4 34.08 6.92 37 10.5 37 L 20 37 C 20 30.93 26.28 26 34 26 C 37.91 26 41.46 27.270781 44 29.300781 L 44 15.210938 C 44 13.630937 43.160781 12.149844 41.800781 11.339844 L 37 8.484375 L 37 7.5 C 37 5.5850452 35.414955 4 33.5 4 L 14.5 4 z M 14.5 7 L 33.5 7 C 33.795045 7 34 7.2049548 34 7.5 L 34 17.96875 L 24 22.830078 L 14 17.96875 L 14 7.5 C 14 7.2049548 14.204955 7 14.5 7 z M 11 11.978516 L 11 16.511719 L 7.1308594 14.630859 C 7.2508594 14.340859 7.4604687 14.079922 7.7304688 13.919922 L 11 11.978516 z M 37 11.978516 L 40.269531 13.919922 C 40.539531 14.079922 40.749141 14.340859 40.869141 14.630859 L 37 16.511719 L 37 11.978516 z M 34 28 C 27.373 28 22 32.029 22 37 C 22 37.69262 22.115025 38.364024 22.3125 39.011719 L 22.298828 39 C 23.000828 42 20.981687 43.286594 20.179688 44.433594 C 19.702688 45.115594 20.233453 46.045047 21.064453 45.998047 C 24.721032 45.793503 28.191036 45.145291 28.669922 45.054688 C 30.277351 45.654237 32.083006 46 34 46 C 40.627 46 46 41.971 46 37 C 46 32.029 40.627 28 34 28 z M 34 31 C 34.552 31 35 31.447 35 32 L 35 36 L 39 36 C 39.552 36 40 36.447 40 37 C 40 37.553 39.552 38 39 38 L 35 38 L 35 42 C 35 42.553 34.552 43 34 43 C 33.448 43 33 42.553 33 42 L 33 38 L 29 38 C 28.448 38 28 37.553 28 37 C 28 36.447 28.448 36 29 36 L 33 36 L 33 32 C 33 31.447 33.448 31 34 31 z"/></svg>