<svg fill="#000000" xmlns="http://www.w3.org/2000/svg"  viewBox="0 0 48 48" width="24px" height="24px"><path d="M 12.5 4 C 10.032499 4 8 6.0324991 8 8.5 L 8 37.253906 A 1.50015 1.50015 0 0 0 8 37.740234 L 8 39.5 C 8 41.967501 10.032499 44 12.5 44 L 39.5 44 A 1.50015 1.50015 0 1 0 39.5 41 L 12.5 41 C 11.653501 41 11 40.346499 11 39.5 L 11 39 L 39.5 39 A 1.50015 1.50015 0 0 0 41 37.5 L 41 8.5 C 41 6.0324991 38.967501 4 36.5 4 L 12.5 4 z M 24.5 12 C 26.43 12 28 13.57 28 15.5 C 28 17.43 26.43 19 24.5 19 C 22.57 19 21 17.43 21 15.5 C 21 13.57 22.57 12 24.5 12 z M 20 22 L 29 22 C 30.657 22 32 23.343 32 25 L 32 27 C 32 29.206 28.084 31 24.5 31 C 20.916 31 17 29.206 17 27 L 17 25 C 17 23.343 18.343 22 20 22 z"/></svg>