<svg fill="#000000" xmlns="http://www.w3.org/2000/svg"  viewBox="0 0 48 48" width="24px" height="24px"><path d="M 17.066406 2.9785156 A 2.0002 2.0002 0 0 0 15.400391 6.1992188 L 18.400391 10.199219 A 2.0002 2.0002 0 1 0 21.599609 7.8007812 L 18.599609 3.8007812 A 2.0002 2.0002 0 0 0 17.066406 2.9785156 z M 31.074219 2.9785156 A 2.0002 2.0002 0 0 0 29.400391 3.8007812 L 26.400391 7.8007812 A 2.0002 2.0002 0 1 0 29.599609 10.199219 L 32.599609 6.1992188 A 2.0002 2.0002 0 0 0 31.074219 2.9785156 z M 13 13 C 6.9483321 13 2 17.948332 2 24 C 2 30.051668 6.9483321 35 13 35 L 17 35 A 2.0002 2.0002 0 1 0 17 31 L 13 31 C 9.1096679 31 6 27.890332 6 24 C 6 20.109668 9.1096679 17 13 17 L 17 17 A 2.0002 2.0002 0 1 0 17 13 L 13 13 z M 31 13 A 2.0002 2.0002 0 1 0 31 17 L 35 17 C 38.890332 17 42 20.109668 42 24 C 42 27.890332 38.890332 31 35 31 L 31 31 A 2.0002 2.0002 0 1 0 31 35 L 35 35 C 41.051668 35 46 30.051668 46 24 C 46 17.948332 41.051668 13 35 13 L 31 13 z M 20.074219 36.978516 A 2.0002 2.0002 0 0 0 18.400391 37.800781 L 15.400391 41.800781 A 2.0002 2.0002 0 1 0 18.599609 44.199219 L 21.599609 40.199219 A 2.0002 2.0002 0 0 0 20.074219 36.978516 z M 28.066406 36.978516 A 2.0002 2.0002 0 0 0 26.400391 40.199219 L 29.400391 44.199219 A 2.0002 2.0002 0 1 0 32.599609 41.800781 L 29.599609 37.800781 A 2.0002 2.0002 0 0 0 28.066406 36.978516 z"/></svg>