<svg fill="#000000" xmlns="http://www.w3.org/2000/svg"  viewBox="0 0 48 48" width="24px" height="24px"><path d="M 17.5 4 C 15.02 4 13 6.02 13 8.5 L 13 34.5 C 13 36.98 15.02 39 17.5 39 L 18.009766 39 C 17.999766 38.83 18 38.67 18 38.5 C 18 33.26 22.26 29 27.5 29 L 38.5 29 C 39.01 29 39.51 29.039141 40 29.119141 L 40 8.5 C 40 6.02 37.98 4 35.5 4 L 17.5 4 z M 11 9.2597656 C 9.25 9.8797656 8 11.55 8 13.5 L 8 34.5 C 8 39.74 12.26 44 17.5 44 L 19.75 44 C 19.11 43.1 18.629844 42.09 18.339844 41 L 17.5 41 C 13.92 41 11 38.08 11 34.5 L 11 9.2597656 z M 27.5 31 C 23.364 31 20 34.364 20 38.5 C 20 42.636 23.364 46 27.5 46 L 29.5 46 C 30.329 46 31 45.329 31 44.5 C 31 43.671 30.329 43 29.5 43 L 27.5 43 C 25.019 43 23 40.981 23 38.5 C 23 36.019 25.019 34 27.5 34 L 29.5 34 C 30.329 34 31 33.329 31 32.5 C 31 31.671 30.329 31 29.5 31 L 27.5 31 z M 36.5 31 C 35.671 31 35 31.671 35 32.5 C 35 33.329 35.671 34 36.5 34 L 38.5 34 C 40.981 34 43 36.019 43 38.5 C 43 40.981 40.981 43 38.5 43 L 36.5 43 C 35.671 43 35 43.671 35 44.5 C 35 45.329 35.671 46 36.5 46 L 38.5 46 C 42.636 46 46 42.636 46 38.5 C 46 34.364 42.636 31 38.5 31 L 36.5 31 z M 27.5 37 C 26.671 37 26 37.671 26 38.5 C 26 39.329 26.671 40 27.5 40 L 38.5 40 C 39.329 40 40 39.329 40 38.5 C 40 37.671 39.329 37 38.5 37 L 27.5 37 z"/></svg>