<svg fill="#000000" xmlns="http://www.w3.org/2000/svg"  viewBox="0 0 48 48" width="24px" height="24px"><path d="M 13 8 C 6.9483321 8 2 12.948332 2 19 C 2 25.051668 6.9483321 30 13 30 L 17 30 A 2.0002 2.0002 0 1 0 17 26 L 13 26 C 9.1096679 26 6 22.890332 6 19 C 6 15.109668 9.1096679 12 13 12 L 17 12 A 2.0002 2.0002 0 1 0 17 8 L 13 8 z M 29 8 C 27.9 8 27 8.9 27 10 C 27 11.1 27.9 12 29 12 L 33 12 C 36.86 12 40 15.14 40 19 C 40 20.33 39.630469 21.570859 38.980469 22.630859 C 40.270469 23.040859 41.480547 23.649687 42.560547 24.429688 C 43.480547 22.829688 44 20.98 44 19 C 44 12.93 39.07 8 33 8 L 29 8 z M 12 17 A 2.0002 2.0002 0 1 0 12 21 L 34 21 A 2.0002 2.0002 0 1 0 34 17 L 12 17 z M 35 24 C 32.185 23.999875 29.370656 25.074656 27.222656 27.222656 C 22.926656 31.518656 22.926656 38.483297 27.222656 42.779297 C 31.518656 47.075297 38.482344 47.075297 42.777344 42.779297 C 47.072344 38.483297 47.073344 31.517656 42.777344 27.222656 C 40.629344 25.074156 37.815 24.000125 35 24 z M 30.050781 29.050781 C 30.306781 29.050781 30.562813 29.14875 30.757812 29.34375 L 35 33.585938 L 39.242188 29.34375 C 39.632188 28.95375 40.26625 28.95375 40.65625 29.34375 C 41.04625 29.73475 41.04625 30.367813 40.65625 30.757812 L 36.414062 35 L 40.65625 39.242188 C 41.04625 39.632188 41.04625 40.26625 40.65625 40.65625 C 40.26625 41.04625 39.632187 41.04625 39.242188 40.65625 L 35 36.414062 L 30.757812 40.65625 C 30.367812 41.04625 29.73375 41.04625 29.34375 40.65625 C 28.95375 40.26625 28.95375 39.632187 29.34375 39.242188 L 33.585938 35 L 29.34375 30.757812 C 28.95375 30.367812 28.95375 29.73375 29.34375 29.34375 C 29.53875 29.14875 29.794781 29.050781 30.050781 29.050781 z"/></svg>