<svg fill="#000000" xmlns="http://www.w3.org/2000/svg"  viewBox="0 0 48 48" width="24px" height="24px"><path d="M 13 8 C 6.9483321 8 2 12.948332 2 19 C 2 25.051668 6.9483321 30 13 30 L 17 30 A 2.0002 2.0002 0 1 0 17 26 L 13 26 C 9.1096679 26 6 22.890332 6 19 C 6 15.109668 9.1096679 12 13 12 L 17 12 A 2.0002 2.0002 0 1 0 17 8 L 13 8 z M 29 8 C 27.9 8 27 8.9 27 10 C 27 11.1 27.9 12 29 12 L 33 12 C 36.86 12 40 15.14 40 19 C 40 20.26 39.670313 21.450703 39.070312 22.470703 C 39.470313 22.310703 39.890547 22.189375 40.310547 22.109375 C 40.700547 22.039375 41.100234 22 41.490234 22 L 41.509766 22 C 42.189766 22 42.860234 22.110547 43.490234 22.310547 C 43.820234 21.270547 44 20.15 44 19 C 44 12.93 39.07 8 33 8 L 29 8 z M 12 17 A 2.0002 2.0002 0 1 0 12 21 L 34 21 A 2.0002 2.0002 0 1 0 34 17 L 12 17 z M 41.498047 24 C 41.224047 24.001 40.946969 24.025172 40.667969 24.076172 C 39.783969 24.235172 38.939563 24.696156 38.226562 25.410156 L 26.427734 37.208984 C 26.070734 37.565984 25.807969 38.011141 25.667969 38.494141 L 24.097656 43.974609 C 24.025656 44.164609 23.993 44.365406 24 44.566406 C 24.013 44.929406 24.155594 45.288406 24.433594 45.566406 C 24.710594 45.843406 25.067688 45.986 25.429688 46 C 25.630688 46.007 25.834391 45.975344 26.025391 45.902344 L 31.505859 44.332031 C 31.988859 44.192031 32.431062 43.930266 32.789062 43.572266 L 44.589844 31.773438 C 45.303844 31.060437 45.764828 30.216031 45.923828 29.332031 C 45.973828 29.053031 45.997047 28.775953 45.998047 28.501953 C 46.001047 27.307953 45.540687 26.179312 44.679688 25.320312 C 43.820687 24.460313 42.692047 23.998 41.498047 24 z M 35.140625 25.669922 C 34.470625 25.879922 33.75 26 33 26 L 29 26 C 27.9 26 27 26.9 27 28 C 27 29.1 27.9 30 29 30 L 30.800781 30 L 35.140625 25.669922 z"/></svg>