<svg fill="#000000" xmlns="http://www.w3.org/2000/svg"  viewBox="0 0 48 48" width="24px" height="24px"><path d="M 10.5 6 C 8.0324991 6 6 8.0324991 6 10.5 L 6 37.5 C 6 39.967501 8.0324991 42 10.5 42 L 28 42 L 28 32.5 C 28 29.996501 29.996501 28 32.5 28 L 42 28 L 42 10.5 C 42 8.0324991 39.967501 6 37.5 6 L 10.5 6 z M 15.5 13.998047 L 32.5 13.998047 C 33.328 13.998047 34 14.670047 34 15.498047 C 34 16.326047 33.328 16.998047 32.5 16.998047 L 15.5 16.998047 C 14.672 16.998047 14 16.326047 14 15.498047 C 14 14.670047 14.672 13.998047 15.5 13.998047 z M 15.5 20.998047 L 28.5 20.998047 C 29.328 20.998047 30 21.670047 30 22.498047 C 30 23.326047 29.328 23.998047 28.5 23.998047 L 15.5 23.998047 C 14.672 23.998047 14 23.326047 14 22.498047 C 14 21.670047 14.672 20.998047 15.5 20.998047 z M 33 31 C 31.895 31 31 31.895 31 33 L 31 41.119141 L 41.119141 31 L 33 31 z"/></svg>