<svg fill="#000000" xmlns="http://www.w3.org/2000/svg"  viewBox="0 0 48 48" width="24px" height="24px"><path d="M 29.970703 9.9726562 A 2.0002 2.0002 0 0 0 28 12 L 28 36 A 2.0002 2.0002 0 1 0 32 36 L 32 25.869141 L 42.525391 37.351562 A 2.0002979 2.0002979 0 1 0 45.474609 34.648438 L 35.65625 23.9375 L 44.537109 13.28125 A 2.0002 2.0002 0 0 0 42.976562 9.9785156 A 2.0002 2.0002 0 0 0 41.462891 10.71875 L 32 22.074219 L 32 12 A 2.0002 2.0002 0 0 0 29.970703 9.9726562 z M 13.5 10 C 6.8879698 10 2 16.516888 2 24 C 2 31.483112 6.8879698 38 13.5 38 C 20.11203 38 25 31.483112 25 24 C 25 16.516888 20.11203 10 13.5 10 z M 13.5 14 C 17.381387 14 21 18.228278 21 24 C 21 29.771722 17.381387 34 13.5 34 C 9.6186128 34 6 29.771722 6 24 C 6 18.228278 9.6186128 14 13.5 14 z"/></svg>