<svg fill="#000000" xmlns="http://www.w3.org/2000/svg"  viewBox="0 0 48 48" width="24px" height="24px"><path d="M 12.5 4 C 10.02 4 8 6.02 8 8.5 L 8 39.5 C 8 41.98 10.02 44 12.5 44 L 35.5 44 C 37.98 44 40 41.98 40 39.5 L 40 20 L 28.5 20 C 26.02 20 24 17.98 24 15.5 L 24 4 L 12.5 4 z M 27 4.8789062 L 27 15.5 C 27 16.327 27.673 17 28.5 17 L 39.121094 17 L 27 4.8789062 z M 25.5 23.998047 C 25.8825 23.998047 26.265547 24.144453 26.560547 24.439453 L 32.560547 30.439453 C 33.150547 31.029453 33.150547 31.970547 32.560547 32.560547 L 26.560547 38.560547 C 26.270547 38.850547 25.88 39 25.5 39 C 25.12 39 24.729453 38.850547 24.439453 38.560547 C 23.849453 37.970547 23.849453 37.029453 24.439453 36.439453 L 27.880859 33 L 16.5 33 C 15.67 33 15 32.33 15 31.5 C 15 30.67 15.67 30 16.5 30 L 27.880859 30 L 24.439453 26.560547 C 23.849453 25.970547 23.849453 25.029453 24.439453 24.439453 C 24.734453 24.144453 25.1175 23.998047 25.5 23.998047 z"/></svg>