<svg fill="#000000" xmlns="http://www.w3.org/2000/svg"  viewBox="0 0 48 48" width="24px" height="24px"><path d="M 20.369141 4.5507812 C 11.389141 6.6607813 5 14.66 5 24 C 5 35.03 13.97 44 25 44 C 34.35 44 42.339219 37.600859 44.449219 28.630859 C 43.849219 28.690859 43.260156 28.710938 42.660156 28.710938 C 36.750156 28.710938 31.109375 26.390625 26.859375 22.140625 C 22.179375 17.460625 19.839141 11.110781 20.369141 4.5507812 z M 23.339844 4.9804688 C 22.959844 10.590469 24.970469 16.009531 28.980469 20.019531 C 32.990469 24.029531 38.429062 26.060156 44.039062 25.660156 C 42.979063 24.180156 40.359844 21.299531 34.089844 15.019531 C 27.759844 8.6995312 24.839844 6.0504688 23.339844 4.9804688 z"/></svg>